{
	"asset":{
		"generator":"Khronos glTF Blender I/O v4.2.57",
		"version":"2.0"
	},
	"extensionsUsed":[
		"KHR_materials_specular"
	],
	"scene":0,
	"scenes":[
		{
			"name":"Scene",
			"nodes":[
				0
			]
		}
	],
	"nodes":[
		{
			"mesh":0,
			"name":"Sphere.001",
			"scale":[
				0.9750159382820129,
				1.6251856088638306,
				1.6250263452529907
			],
			"translation":[
				-0.009650059044361115,
				2.131223678588867,
				0.5792547464370728
			]
		}
	],
	"materials":[
		{
			"doubleSided":true,
			"extensions":{
				"KHR_materials_specular":{
					"specularColorFactor":[
						2.0,
						2.0,
						2.0
					]
				}
			},
			"name":"Material.004",
			"pbrMetallicRoughness":{
				"baseColorFactor":[
					0.6855669021606445,
					0.08179905265569687,
					0.09002377837896347,
					1
				],
				"roughnessFactor":0.5527864098548889
			}
		},
		{
			"name":"material",
			"pbrMetallicRoughness":{
				"baseColorFactor":[
					0.8899922966957092,
					0.3673788011074066,
					0.45539581775665283,
					1
				],
				"metallicFactor":0,
				"roughnessFactor":0.6000000238418579
			}
		}
	],
	"meshes":[
		{
			"name":"Sphere.002",
			"primitives":[
				{
					"attributes":{
						"POSITION":0,
						"NORMAL":1
					},
					"indices":2,
					"material":0
				},
				{
					"attributes":{
						"POSITION":3,
						"NORMAL":4
					},
					"indices":5,
					"material":1
				}
			]
		}
	],
	"accessors":[
		{
			"bufferView":0,
			"componentType":5126,
			"count":91,
			"max":[
				1.4510542154312134,
				1.2978883981704712,
				1.0523748983359837e-07
			],
			"min":[
				-1.4510538578033447,
				-1.2349790334701538,
				-1.451054334640503
			],
			"type":"VEC3"
		},
		{
			"bufferView":1,
			"componentType":5126,
			"count":91,
			"type":"VEC3"
		},
		{
			"bufferView":2,
			"componentType":5123,
			"count":534,
			"type":"SCALAR"
		},
		{
			"bufferView":3,
			"componentType":5126,
			"count":2587,
			"max":[
				1.5218117237091064,
				1.1563901901245117,
				1.479976773262024
			],
			"min":[
				-1.4598196744918823,
				-1.2072778940200806,
				0.08019179105758667
			],
			"type":"VEC3"
		},
		{
			"bufferView":4,
			"componentType":5126,
			"count":2587,
			"type":"VEC3"
		},
		{
			"bufferView":5,
			"componentType":5123,
			"count":13920,
			"type":"SCALAR"
		}
	],
	"bufferViews":[
		{
			"buffer":0,
			"byteLength":1092,
			"byteOffset":0,
			"target":34962
		},
		{
			"buffer":0,
			"byteLength":1092,
			"byteOffset":1092,
			"target":34962
		},
		{
			"buffer":0,
			"byteLength":1068,
			"byteOffset":2184,
			"target":34963
		},
		{
			"buffer":0,
			"byteLength":31044,
			"byteOffset":3252,
			"target":34962
		},
		{
			"buffer":0,
			"byteLength":31044,
			"byteOffset":34296,
			"target":34962
		},
		{
			"buffer":0,
			"byteLength":27840,
			"byteOffset":65340,
			"target":34963
		}
	],
	"buffers":[
		{
			"byteLength":93180,
			"uri":"Heart-Brain.bin"
		}
	]
}
