<svg width="22" height="22" viewBox="0 0 22 22" fill="none" xmlns="http://www.w3.org/2000/svg">
<mask id="path-1-outside-1_196_269" maskUnits="userSpaceOnUse" x="0" y="0" width="22" height="22" fill="black">
<rect fill="white" width="22" height="22"/>
<path fill-rule="evenodd" clip-rule="evenodd" d="M11.0001 1C9.1591 1 7.66672 2.49238 7.66672 4.33333V7.66668L4.33333 7.66668C2.49238 7.66668 1 9.15906 1 11C1 12.841 2.49238 14.3333 4.33333 14.3333H7.66672V17.6667C7.66672 19.5076 9.1591 21 11.0001 21C12.841 21 14.3334 19.5076 14.3334 17.6667V14.3333H17.6667C19.5076 14.3333 21 12.841 21 11C21 9.15906 19.5076 7.66668 17.6667 7.66668H14.3334V4.33333C14.3334 2.49238 12.841 1 11.0001 1Z"/>
</mask>
<path fill-rule="evenodd" clip-rule="evenodd" d="M11.0001 1C9.1591 1 7.66672 2.49238 7.66672 4.33333V7.66668L4.33333 7.66668C2.49238 7.66668 1 9.15906 1 11C1 12.841 2.49238 14.3333 4.33333 14.3333H7.66672V17.6667C7.66672 19.5076 9.1591 21 11.0001 21C12.841 21 14.3334 19.5076 14.3334 17.6667V14.3333H17.6667C19.5076 14.3333 21 12.841 21 11C21 9.15906 19.5076 7.66668 17.6667 7.66668H14.3334V4.33333C14.3334 2.49238 12.841 1 11.0001 1Z" fill="#21CFCD"/>
<path d="M7.66672 7.66668L7.66672 8.66668L8.66672 8.66668V7.66668H7.66672ZM4.33333 7.66668L4.33333 6.66668H4.33333V7.66668ZM7.66672 14.3333H8.66672V13.3333H7.66672V14.3333ZM14.3334 14.3333V13.3333H13.3334V14.3333H14.3334ZM14.3334 7.66668H13.3334V8.66668H14.3334V7.66668ZM8.66672 4.33333C8.66672 3.04467 9.71139 2 11.0001 2V0C8.60682 0 6.66672 1.9401 6.66672 4.33333H8.66672ZM8.66672 7.66668V4.33333H6.66672V7.66668H8.66672ZM4.33333 8.66668L7.66672 8.66668L7.66672 6.66668L4.33333 6.66668L4.33333 8.66668ZM2 11C2 9.71135 3.04467 8.66668 4.33333 8.66668V6.66668C1.9401 6.66668 0 8.60678 0 11H2ZM4.33333 13.3333C3.04467 13.3333 2 12.2887 2 11H0C0 13.3932 1.9401 15.3333 4.33333 15.3333V13.3333ZM7.66672 13.3333H4.33333V15.3333H7.66672V13.3333ZM8.66672 17.6667V14.3333H6.66672V17.6667H8.66672ZM11.0001 20C9.71139 20 8.66672 18.9553 8.66672 17.6667H6.66672C6.66672 20.0599 8.60682 22 11.0001 22V20ZM13.3334 17.6667C13.3334 18.9553 12.2887 20 11.0001 20V22C13.3933 22 15.3334 20.0599 15.3334 17.6667H13.3334ZM13.3334 14.3333V17.6667H15.3334V14.3333H13.3334ZM17.6667 13.3333H14.3334V15.3333H17.6667V13.3333ZM20 11C20 12.2887 18.9553 13.3333 17.6667 13.3333V15.3333C20.0599 15.3333 22 13.3932 22 11H20ZM17.6667 8.66668C18.9553 8.66668 20 9.71135 20 11H22C22 8.60678 20.0599 6.66668 17.6667 6.66668V8.66668ZM14.3334 8.66668H17.6667V6.66668H14.3334V8.66668ZM13.3334 4.33333V7.66668H15.3334V4.33333H13.3334ZM11.0001 2C12.2887 2 13.3334 3.04467 13.3334 4.33333H15.3334C15.3334 1.9401 13.3933 0 11.0001 0V2Z" fill="black" mask="url(#path-1-outside-1_196_269)"/>
</svg>
