<svg width="139" height="139" viewBox="0 0 139 139" fill="none" xmlns="http://www.w3.org/2000/svg">
<path d="M121.333 52H86.6667V17.3333C86.6667 12.7362 84.8405 8.32745 81.5899 5.07682C78.3392 1.82618 73.9304 0 69.3333 0C64.7362 0 60.3275 1.82618 57.0768 5.07682C53.8262 8.32745 52 12.7362 52 17.3333L52.6153 52H17.3333C12.7362 52 8.32745 53.8262 5.07682 57.0768C1.82618 60.3275 0 64.7362 0 69.3333C0 73.9304 1.82618 78.3392 5.07682 81.5899C8.32745 84.8405 12.7362 86.6667 17.3333 86.6667L52.6153 86.0513L52 121.333C52 125.93 53.8262 130.339 57.0768 133.59C60.3275 136.84 64.7362 138.667 69.3333 138.667C73.9304 138.667 78.3392 136.84 81.5899 133.59C84.8405 130.339 86.6667 125.93 86.6667 121.333V86.0513L121.333 86.6667C125.93 86.6667 130.339 84.8405 133.59 81.5899C136.84 78.3392 138.667 73.9304 138.667 69.3333C138.667 64.7362 136.84 60.3275 133.59 57.0768C130.339 53.8262 125.93 52 121.333 52Z" fill="#ECFFFD"/>
</svg>
