<svg width="28" height="28" viewBox="0 0 28 28" fill="none" xmlns="http://www.w3.org/2000/svg">
<circle cx="14" cy="14" r="14" fill="#21CFCD"/>
<mask id="path-2-outside-1_274_14" maskUnits="userSpaceOnUse" x="3" y="3" width="22" height="22" fill="black">
<rect fill="white" x="3" y="3" width="22" height="22"/>
<path fill-rule="evenodd" clip-rule="evenodd" d="M14.0001 4C12.1591 4 10.6667 5.49238 10.6667 7.33333V10.6667L7.33333 10.6667C5.49238 10.6667 4 12.1591 4 14C4 15.841 5.49238 17.3333 7.33333 17.3333H10.6667V20.6667C10.6667 22.5076 12.1591 24 14.0001 24C15.841 24 17.3334 22.5076 17.3334 20.6667V17.3333H20.6667C22.5076 17.3333 24 15.841 24 14C24 12.1591 22.5076 10.6667 20.6667 10.6667H17.3334V7.33333C17.3334 5.49238 15.841 4 14.0001 4Z"/>
</mask>
<path fill-rule="evenodd" clip-rule="evenodd" d="M14.0001 4C12.1591 4 10.6667 5.49238 10.6667 7.33333V10.6667L7.33333 10.6667C5.49238 10.6667 4 12.1591 4 14C4 15.841 5.49238 17.3333 7.33333 17.3333H10.6667V20.6667C10.6667 22.5076 12.1591 24 14.0001 24C15.841 24 17.3334 22.5076 17.3334 20.6667V17.3333H20.6667C22.5076 17.3333 24 15.841 24 14C24 12.1591 22.5076 10.6667 20.6667 10.6667H17.3334V7.33333C17.3334 5.49238 15.841 4 14.0001 4Z" fill="#21CFCD"/>
<path d="M10.6667 10.6667L10.6667 11.6667L11.6667 11.6667V10.6667H10.6667ZM7.33333 10.6667L7.33333 9.66668H7.33333V10.6667ZM10.6667 17.3333H11.6667V16.3333H10.6667V17.3333ZM17.3334 17.3333V16.3333H16.3334V17.3333H17.3334ZM17.3334 10.6667H16.3334V11.6667H17.3334V10.6667ZM11.6667 7.33333C11.6667 6.04467 12.7114 5 14.0001 5V3C11.6068 3 9.66672 4.9401 9.66672 7.33333H11.6667ZM11.6667 10.6667V7.33333H9.66672V10.6667H11.6667ZM7.33333 11.6667L10.6667 11.6667L10.6667 9.66668L7.33333 9.66668L7.33333 11.6667ZM5 14C5 12.7113 6.04467 11.6667 7.33333 11.6667V9.66668C4.9401 9.66668 3 11.6068 3 14H5ZM7.33333 16.3333C6.04467 16.3333 5 15.2887 5 14H3C3 16.3932 4.9401 18.3333 7.33333 18.3333V16.3333ZM10.6667 16.3333H7.33333V18.3333H10.6667V16.3333ZM11.6667 20.6667V17.3333H9.66672V20.6667H11.6667ZM14.0001 23C12.7114 23 11.6667 21.9553 11.6667 20.6667H9.66672C9.66672 23.0599 11.6068 25 14.0001 25V23ZM16.3334 20.6667C16.3334 21.9553 15.2887 23 14.0001 23V25C16.3933 25 18.3334 23.0599 18.3334 20.6667H16.3334ZM16.3334 17.3333V20.6667H18.3334V17.3333H16.3334ZM20.6667 16.3333H17.3334V18.3333H20.6667V16.3333ZM23 14C23 15.2887 21.9553 16.3333 20.6667 16.3333V18.3333C23.0599 18.3333 25 16.3932 25 14H23ZM20.6667 11.6667C21.9553 11.6667 23 12.7113 23 14H25C25 11.6068 23.0599 9.66668 20.6667 9.66668V11.6667ZM17.3334 11.6667H20.6667V9.66668H17.3334V11.6667ZM16.3334 7.33333V10.6667H18.3334V7.33333H16.3334ZM14.0001 5C15.2887 5 16.3334 6.04467 16.3334 7.33333H18.3334C18.3334 4.9401 16.3933 3 14.0001 3V5Z" fill="black" mask="url(#path-2-outside-1_274_14)"/>
</svg>
