<svg width="167" height="167" viewBox="0 0 167 167" fill="none" xmlns="http://www.w3.org/2000/svg">
<g filter="url(#filter0_d_5_8)">
<path d="M135.333 57H100.667V22.3333C100.667 17.7362 98.8405 13.3274 95.5899 10.0768C92.3392 6.82618 87.9304 5 83.3333 5C78.7363 5 74.3275 6.82618 71.0768 10.0768C67.8262 13.3274 66 17.7362 66 22.3333L66.6153 57H31.3333C26.7362 57 22.3274 58.8262 19.0768 62.0768C15.8262 65.3275 14 69.7363 14 74.3333C14 78.9304 15.8262 83.3392 19.0768 86.5899C22.3274 89.8405 26.7362 91.6667 31.3333 91.6667L66.6153 91.0513L66 126.333C66 130.93 67.8262 135.339 71.0768 138.59C74.3275 141.84 78.7363 143.667 83.3333 143.667C87.9304 143.667 92.3392 141.84 95.5899 138.59C98.8405 135.339 100.667 130.93 100.667 126.333V91.0513L135.333 91.6667C139.93 91.6667 144.339 89.8405 147.59 86.5899C150.84 83.3392 152.667 78.9304 152.667 74.3333C152.667 69.7363 150.84 65.3275 147.59 62.0768C144.339 58.8262 139.93 57 135.333 57Z" fill="#FD5852"/>
</g>
<defs>
<filter id="filter0_d_5_8" x="0.4" y="0.4" width="165.867" height="165.867" filterUnits="userSpaceOnUse" color-interpolation-filters="sRGB">
<feFlood flood-opacity="0" result="BackgroundImageFix"/>
<feColorMatrix in="SourceAlpha" type="matrix" values="0 0 0 0 0 0 0 0 0 0 0 0 0 0 0 0 0 0 127 0" result="hardAlpha"/>
<feOffset dy="9"/>
<feGaussianBlur stdDeviation="6.8"/>
<feComposite in2="hardAlpha" operator="out"/>
<feColorMatrix type="matrix" values="0 0 0 0 0 0 0 0 0 0 0 0 0 0 0 0 0 0 0.5 0"/>
<feBlend mode="normal" in2="BackgroundImageFix" result="effect1_dropShadow_5_8"/>
<feBlend mode="normal" in="SourceGraphic" in2="effect1_dropShadow_5_8" result="shape"/>
</filter>
</defs>
</svg>
