<svg id="visual" viewBox="0 0 900 200" width="900" height="200" xmlns="http://www.w3.org/2000/svg" xmlns:xlink="http://www.w3.org/1999/xlink" version="1.1"><rect x="0" y="0" width="900" height="200" fill="#ECFFFD"></rect><path d="M0 150L18.8 140.3C37.7 130.7 75.3 111.3 112.8 114.3C150.3 117.3 187.7 142.7 225.2 134.8C262.7 127 300.3 86 337.8 81.7C375.3 77.3 412.7 109.7 450.2 111.2C487.7 112.7 525.3 83.3 562.8 70.8C600.3 58.3 637.7 62.7 675.2 79.3C712.7 96 750.3 125 787.8 133C825.3 141 862.7 128 881.3 121.5L900 115L900 0L881.3 0C862.7 0 825.3 0 787.8 0C750.3 0 712.7 0 675.2 0C637.7 0 600.3 0 562.8 0C525.3 0 487.7 0 450.2 0C412.7 0 375.3 0 337.8 0C300.3 0 262.7 0 225.2 0C187.7 0 150.3 0 112.8 0C75.3 0 37.7 0 18.8 0L0 0Z" fill="#D46B61" stroke-linecap="round" stroke-linejoin="miter"></path></svg>